<?xml version="1.0" standalone="no"?>
<!DOCTYPE svg PUBLIC "-//W3C//DTD SVG 20010904//EN"
 "http://www.w3.org/TR/2001/REC-SVG-20010904/DTD/svg10.dtd">
<svg version="1.0" xmlns="http://www.w3.org/2000/svg"
 width="2054.000000pt" height="2054.000000pt" viewBox="0 0 2054.000000 2054.000000"
 preserveAspectRatio="xMidYMid meet">

<g transform="translate(0.000000,2054.000000) scale(0.100000,-0.100000)"
fill="#000000" stroke="none">
<path d="M4216 20468 c-3 -29 -6 -338 -6 -685 l0 -633 -1872 0 c-2058 0 -1949
3 -2069 -61 -100 -53 -161 -138 -194 -264 -13 -55 -15 -1001 -13 -9245 l3
-9185 22 -57 c45 -118 128 -205 240 -250 l58 -23 9855 -3 c7001 -1 9870 1
9907 9 79 16 165 63 218 120 51 54 76 103 100 194 13 53 15 1013 15 9216 0
6094 -3 9174 -10 9210 -33 176 -163 299 -350 330 -32 5 -858 9 -1937 9 l-1883
0 0 680 0 680 -1265 0 -1265 0 0 -680 0 -680 -3625 0 -3625 0 0 633 c0 347 -3
656 -6 685 l-7 52 -1142 0 -1142 0 -7 -52z m-6 -3238 l0 -330 1155 0 1155 0 0
330 0 330 3625 0 3625 0 0 -313 0 -314 648 -6 c356 -4 925 -4 1265 0 l617 6 0
314 0 313 1190 0 1190 0 0 -7855 0 -7855 -8495 0 -8495 0 0 7855 0 7855 1260
0 1260 0 0 -330z"/>
<path d="M2972 13805 c-74 -21 -108 -40 -170 -99 -60 -56 -95 -116 -117 -203
-13 -50 -15 -677 -15 -5233 0 -4561 2 -5183 15 -5233 42 -160 157 -273 315
-306 42 -9 1789 -11 7305 -9 l7250 3 58 23 c119 48 199 138 240 267 l22 70 0
5180 c0 5028 -1 5182 -19 5248 -36 131 -121 228 -246 279 l-55 23 -7265 2
c-6250 1 -7272 0 -7318 -12z m13398 -5420 l0 -4015 -6080 0 -6080 0 0 4015 0
4015 6080 0 6080 0 0 -4015z"/>
<path d="M8535 11238 c-3 -7 -4 -209 -3 -448 l3 -435 435 0 435 0 0 445 0 445
-433 3 c-341 2 -434 0 -437 -10z"/>
<path d="M11145 11238 c-3 -7 -4 -209 -3 -448 l3 -435 435 0 435 0 0 445 0
445 -433 3 c-341 2 -434 0 -437 -10z"/>
<path d="M13745 11238 c-3 -7 -4 -209 -3 -448 l3 -435 438 -3 437 -2 0 450 0
450 -435 0 c-339 0 -437 -3 -440 -12z"/>
<path d="M5927 8713 c-4 -3 -7 -204 -7 -445 l0 -438 440 0 440 0 0 445 0 445
-433 0 c-239 0 -437 -3 -440 -7z"/>
<path d="M8530 8275 l0 -445 440 0 440 0 0 445 0 445 -440 0 -440 0 0 -445z"/>
<path d="M11140 8275 l0 -445 440 0 440 0 -2 443 -3 442 -437 3 -438 2 0 -445z"/>
<path d="M13747 8713 c-4 -3 -7 -204 -7 -445 l0 -438 440 0 440 0 0 445 0 445
-433 0 c-239 0 -437 -3 -440 -7z"/>
<path d="M5922 5698 l3 -443 438 -3 437 -2 0 445 0 445 -440 0 -440 0 2 -442z"/>
<path d="M8530 5695 l0 -445 440 0 440 0 0 445 0 445 -440 0 -440 0 0 -445z"/>
<path d="M11140 5695 l0 -445 438 2 437 3 3 443 2 442 -440 0 -440 0 0 -445z"/>
<path d="M13742 5698 l3 -443 438 -3 437 -2 0 445 0 445 -440 0 -440 0 2 -442z"/>
</g>
</svg>
