<?xml version="1.0" encoding="utf-8"?><!-- Uploaded to: SVG Repo, www.svgrepo.com, Generator: SVG Repo Mixer Tools -->
<svg fill="#000000" width="800px" height="800px" viewBox="0 0 24 24" id="date-cross" data-name="Flat Line" xmlns="http://www.w3.org/2000/svg" class="icon flat-line"><path id="secondary" d="M3,9H21a0,0,0,0,1,0,0V20a1,1,0,0,1-1,1H4a1,1,0,0,1-1-1V9A0,0,0,0,1,3,9Z" style="fill: rgb(44, 169, 188); stroke-width: 2;"></path><path id="primary" d="M20,21H4a1,1,0,0,1-1-1V9H21V20A1,1,0,0,1,20,21ZM21,5a1,1,0,0,0-1-1H4A1,1,0,0,0,3,5V9H21ZM16,3V6M8,3V6" style="fill: none; stroke: rgb(0, 0, 0); stroke-linecap: round; stroke-linejoin: round; stroke-width: 2;"></path><line id="primary-2" data-name="primary" x1="14" y1="17" x2="10" y2="13" style="fill: none; stroke: rgb(0, 0, 0); stroke-linecap: round; stroke-linejoin: round; stroke-width: 2;"></line><line id="primary-3" data-name="primary" x1="10" y1="17" x2="14" y2="13" style="fill: none; stroke: rgb(0, 0, 0); stroke-linecap: round; stroke-linejoin: round; stroke-width: 2;"></line></svg>