<?xml version="1.0" standalone="no"?>
<!DOCTYPE svg PUBLIC "-//W3C//DTD SVG 20010904//EN"
 "http://www.w3.org/TR/2001/REC-SVG-20010904/DTD/svg10.dtd">
<svg version="1.0" xmlns="http://www.w3.org/2000/svg"
 width="400.000000pt" height="391.000000pt" viewBox="0 0 400.000000 391.000000"
 preserveAspectRatio="xMidYMid meet">

<g transform="translate(0.000000,391.000000) scale(0.100000,-0.100000)"
fill="#000000" stroke="none">
<path d="M1100 3888 c-66 -34 -90 -86 -90 -200 l0 -88 -324 0 c-295 0 -330 -2
-387 -20 -112 -35 -213 -132 -255 -243 -18 -51 -19 -91 -19 -1532 l0 -1480 32
-67 c57 -121 157 -201 283 -228 41 -8 477 -10 1695 -8 l1640 3 58 23 c81 33
168 116 209 200 l33 67 0 1495 0 1495 -33 67 c-41 84 -128 167 -209 200 -56
22 -69 23 -395 26 l-338 3 0 72 c0 94 -15 145 -53 185 -62 64 -149 67 -216 6
-46 -40 -61 -90 -61 -193 l0 -71 -670 0 -670 0 0 99 c0 85 -3 102 -22 131 -53
77 -130 98 -208 58z m-88 -712 c2 -87 7 -109 24 -132 53 -72 128 -91 204 -52
66 34 90 86 90 200 l0 88 670 0 670 0 0 -99 c0 -85 3 -102 23 -131 51 -76 124
-98 201 -61 70 34 90 75 94 193 l4 98 310 0 309 0 24 -25 25 -24 0 -231 0
-230 -1660 0 -1660 0 0 229 0 228 25 27 24 26 310 0 309 0 4 -104z m2648
-1756 l0 -1031 -25 -24 -24 -25 -1600 0 c-1151 0 -1607 3 -1624 11 -14 6 -30
22 -36 36 -8 17 -11 318 -11 1043 l0 1020 1660 0 1660 0 0 -1030z"/>
<path d="M2595 1959 c-11 -6 -188 -178 -392 -382 l-373 -372 -197 197 c-109
108 -211 201 -226 207 -126 48 -255 -65 -218 -192 11 -35 54 -84 274 -304 144
-145 276 -270 293 -278 40 -19 107 -19 142 -1 15 8 226 214 469 458 387 388
442 448 448 481 14 76 -20 148 -86 182 -33 17 -105 19 -134 4z"/>
</g>
</svg>
