<?xml version="1.0" standalone="no"?>
<!DOCTYPE svg PUBLIC "-//W3C//DTD SVG 20010904//EN"
 "http://www.w3.org/TR/2001/REC-SVG-20010904/DTD/svg10.dtd">
<svg version="1.0" xmlns="http://www.w3.org/2000/svg"
 width="84.000000pt" height="84.000000pt" viewBox="0 0 84.000000 84.000000"
 preserveAspectRatio="xMidYMid meet">

<g transform="translate(0.000000,84.000000) scale(0.100000,-0.100000)"
fill="#000000" stroke="none">
<path d="M182 828 c-7 -7 -12 -25 -12 -40 0 -25 -4 -28 -30 -28 -48 0 -98 -26
-120 -62 -19 -31 -20 -50 -20 -318 0 -268 1 -287 20 -318 31 -50 71 -62 209
-62 95 0 123 3 135 16 9 8 16 22 16 29 0 36 -29 45 -145 45 -62 0 -120 3 -129
6 -14 5 -16 33 -16 205 l0 199 330 0 330 0 0 -95 c0 -84 2 -95 20 -105 26 -14
58 2 66 35 3 13 4 93 2 177 -2 126 -6 159 -21 181 -24 37 -59 58 -107 64 -31
4 -40 10 -40 25 0 33 -19 58 -45 58 -26 0 -45 -25 -45 -59 0 -20 -5 -21 -165
-21 l-165 0 0 28 c0 31 -16 52 -40 52 -9 0 -21 -5 -28 -12z m556 -170 c7 -7
12 -25 12 -40 l0 -28 -330 0 -330 0 0 28 c0 15 5 33 12 40 17 17 619 17 636 0z"/>
<path d="M478 249 c-27 -15 -21 -49 14 -86 l32 -33 -32 -33 c-39 -41 -42 -73
-6 -89 24 -11 29 -9 85 49 32 34 59 67 59 74 0 14 -112 129 -126 129 -5 0 -17
-5 -26 -11z"/>
<path d="M681 241 c-24 -24 -18 -50 20 -87 l28 -27 -35 -39 c-33 -37 -34 -41
-21 -61 25 -38 45 -32 107 30 46 46 58 64 54 81 -7 23 -106 122 -123 122 -6 0
-20 -9 -30 -19z"/>
</g>
</svg>
